<?xml version="1.0" ?><!DOCTYPE svg  PUBLIC '-//W3C//DTD SVG 1.1//EN'  'http://www.w3.org/Graphics/SVG/1.1/DTD/svg11.dtd'><svg height="512px" style="enable-background:new 0 0 512 512;" version="1.1" viewBox="0 0 512 512" width="512px" xml:space="preserve" xmlns="http://www.w3.org/2000/svg" xmlns:xlink="http://www.w3.org/1999/xlink"><g id="_x36_71_x2C__Check_x2C__checklist_x2C__list_x2C__task_x2C__todo"><g><path d="M392.995,28.574H118.126v30.655v342.27h238.438h36.431V28.574z     M182.922,74.229c1.442,0,2.979-0.941,3.45-2.165c1.288-2.572-0.658-5.522-3.45-5.522h-7.719c-1.444,0-2.981,0.941-3.452,2.166    c-1.286,2.572,0.658,5.521,3.452,5.521H182.922z M213.765,74.229c1.444,0,2.981-0.941,3.451-2.165    c1.287-2.572-0.658-5.522-3.451-5.522h-7.719c-1.474,0-2.981,0.941-3.483,2.166c-1.254,2.572,0.691,5.521,3.483,5.521H213.765z     M244.578,74.229c1.474,0,2.981-0.941,3.483-2.165c1.286-2.572-0.691-5.522-3.483-5.522h-7.688c-1.476,0-2.981,0.941-3.483,2.166    c-1.286,2.572,0.689,5.521,3.483,5.521H244.578z M275.421,74.229c1.477,0,2.981-0.941,3.483-2.165    c1.286-2.572-0.689-5.522-3.483-5.522h-7.688c-1.474,0-2.979,0.941-3.481,2.166c-1.287,2.572,0.69,5.521,3.481,5.521H275.421z     M306.267,74.229c1.474,0,2.981-0.941,3.483-2.165c1.286-2.572-0.691-5.522-3.483-5.522h-7.72c-1.442,0-2.949,0.941-3.451,2.166    c-1.286,2.572,0.66,5.521,3.451,5.521H306.267z M337.111,74.229c1.443,0,2.98-0.941,3.451-2.165    c1.287-2.572-0.659-5.522-3.451-5.522h-7.719c-1.444,0-2.981,0.941-3.451,2.166c-1.287,2.572,0.657,5.521,3.451,5.521H337.111z     M366.764,74.229c1.441,0,2.979-0.941,3.451-2.165c1.286-2.572-0.66-5.522-3.451-5.522h-6.527c-1.443,0-2.98,0.941-3.452,2.166    c-1.286,2.572,0.659,5.521,3.452,5.521H366.764z M144.357,66.541c-1.444,0-2.981,0.941-3.452,2.166    c-1.286,2.572,0.66,5.521,3.452,5.521h7.719c1.442,0,2.981-0.941,3.452-2.165c1.286-2.572-0.66-5.522-3.452-5.522H144.357z     M176.645,124.308h-28.429v28.429h28.429V124.308z M144.357,116.588h36.148c2.134,0,3.859,1.726,3.859,3.859v36.148    c0,2.133-1.725,3.857-3.859,3.857h-36.148c-2.134,0-3.858-1.725-3.858-3.857v-36.148    C140.499,118.313,142.224,116.588,144.357,116.588z M204.226,134.098c-2.134,0-3.859-1.727-3.859-3.861    c0-2.133,1.725-3.857,3.859-3.857h73.046c2.134,0,3.86,1.725,3.86,3.857c0,2.135-1.727,3.861-3.86,3.861H204.226z     M204.226,150.664c-2.134,0-3.859-1.725-3.859-3.859c0-2.133,1.725-3.859,3.859-3.859h152.872c2.135,0,3.861,1.727,3.861,3.859    c0,2.135-1.727,3.859-3.861,3.859H204.226z M176.645,197.322h-28.429v28.461h28.429V197.322z M144.357,189.635h36.148    c2.134,0,3.859,1.727,3.859,3.83v36.146c0,2.134-1.725,3.86-3.859,3.86h-36.148c-2.134,0-3.858-1.727-3.858-3.86v-36.146    C140.499,191.361,142.224,189.635,144.357,189.635z M204.226,207.113c-2.134,0-3.859-1.726-3.859-3.859    c0-2.102,1.725-3.828,3.859-3.828h73.046c2.134,0,3.86,1.727,3.86,3.828c0,2.134-1.727,3.859-3.86,3.859H204.226z     M204.226,223.682c-2.134,0-3.859-1.728-3.859-3.861c0-2.102,1.725-3.826,3.859-3.826h152.872c2.135,0,3.861,1.725,3.861,3.826    c0,2.134-1.727,3.861-3.861,3.861H204.226z M176.645,270.371h-28.429v28.428h28.429V270.371z M144.357,262.652h36.148    c2.134,0,3.859,1.725,3.859,3.858v36.147c0,2.135-1.725,3.859-3.859,3.859h-36.148c-2.134,0-3.858-1.725-3.858-3.859v-36.147    C140.499,264.377,142.224,262.652,144.357,262.652z M204.226,280.161c-2.134,0-3.859-1.727-3.859-3.86s1.725-3.859,3.859-3.859    h73.046c2.134,0,3.86,1.726,3.86,3.859s-1.727,3.86-3.86,3.86H204.226z M204.226,296.728c-2.134,0-3.859-1.725-3.859-3.858    s1.725-3.86,3.859-3.86h152.872c2.135,0,3.861,1.727,3.861,3.86s-1.727,3.858-3.861,3.858H204.226z M176.645,343.418h-28.429    v28.429h28.429V343.418z M144.357,335.699h36.148c2.134,0,3.859,1.727,3.859,3.858v36.147c0,2.135-1.725,3.859-3.859,3.859    h-36.148c-2.134,0-3.858-1.725-3.858-3.859v-36.147C140.499,337.426,142.224,335.699,144.357,335.699z M204.226,353.208    c-2.134,0-3.859-1.727-3.859-3.858c0-2.135,1.725-3.861,3.859-3.861h73.046c2.134,0,3.86,1.727,3.86,3.861    c0,2.132-1.727,3.858-3.86,3.858H204.226z M204.226,369.774c-2.134,0-3.859-1.725-3.859-3.858s1.725-3.859,3.859-3.859h152.872    c2.135,0,3.861,1.726,3.861,3.859s-1.727,3.858-3.861,3.858H204.226z M97.793,30.237c2.134,0,3.859,1.726,3.859,3.858    c0,2.135-1.725,3.861-3.859,3.861H60.924v89.865c0,2.103-1.756,3.859-3.86,3.859c-2.132,0-3.859-1.757-3.859-3.859V34.096    c0-2.133,1.727-3.858,3.859-3.858H97.793z M41.941,460.958c-2.102,0-3.86-1.725-3.86-3.858s1.758-3.86,3.86-3.86h306.779    c2.135,0,3.859,1.727,3.859,3.86s-1.725,3.858-3.859,3.858H41.941z M221.579,483.426c-2.102,0-3.86-1.758-3.86-3.86    c0-2.134,1.758-3.858,3.86-3.858h212.3c2.134,0,3.86,1.725,3.86,3.858c0,2.103-1.727,3.86-3.86,3.86H221.579z M455.593,483.426    c-2.103,0-3.859-1.758-3.859-3.86c0-2.134,1.757-3.858,3.859-3.858h26.546c2.133,0,3.86,1.725,3.86,3.858    c0,2.103-1.728,3.86-3.86,3.86H455.593z M29.86,482.734c-2.134,0-3.858-1.725-3.858-3.858s1.725-3.86,3.858-3.86h100.598    c2.132,0,3.859,1.727,3.859,3.86s-1.727,3.858-3.859,3.858H29.86z M352.611,409.187H114.267c-2.134,0-3.86-1.728-3.86-3.86V63.183    H77.742v372.894h274.869V409.187z" style="fill-rule:evenodd;clip-rule:evenodd;"/></g></g><g id="Layer_1"/></svg>